# xmcd
#
# Track frame offsets:
#	150
#	11937
#	23344
#	31646
#	44178
#	57025
#	65522
#	78452
#	88472
#	101259
#	114376
#	128018
#	139283
#	147173
#	155234
#	165714
#	175374
#	185551
#	195226
#	203939
#
# Disc length: 2837 seconds
#
# Revision: 0
# Processed by: cddbd v1.4PL0 Copyright (c) Steve Scherf et al.
# Submitted via: EasyCDDAExtractor 4.6.9.1
#
DISCID=180b1314
DTITLE=Raymond Rouleau - DETOUR and MA RAISON DE VIVRE
DYEAR=1900
DGENRE=
TTITLE0=Cruelle Jalousie
TTITLE1=De Toi Je M'ennuie
TTITLE2=Detour
TTITLE3=Diane Ma Fiancer
TTITLE4=Dis A rose Que Je L'aime
TTITLE5=Hello Trouble
TTITLE6=Le Chauffeur De Taxi
TTITLE7=Le Matadore
TTITLE8=Le Plus Beau Mots D'amour
TTITLE9=Le Temps Passer
TTITLE10=Les Braconniers
TTITLE11=LouLou
TTITLE12=Ma Raison De Vivre
TTITLE13=Maison Dans Mon Vallon
TTITLE14=Mon Fils Appelle Un Autre Homme Papa
TTITLE15=Quand Le Crepuscule S'assombrit
TTITLE16=Ton Jonc A mon Doigt
TTITLE17=Tu Est Mon Soleil
TTITLE18=Tu Refuse Mon Coeur
TTITLE19=L'anneau de Feu
EXTD=
EXTT0=
EXTT1=
EXTT2=
EXTT3=
EXTT4=
EXTT5=
EXTT6=
EXTT7=
EXTT8=
EXTT9=
EXTT10=
EXTT11=
EXTT12=
EXTT13=
EXTT14=
EXTT15=
EXTT16=
EXTT17=
EXTT18=
EXTT19=
PLAYORDER=
